<mxfile host="app.diagrams.net" modified="2024-02-27T18:53:50.526Z" agent="Mozilla/5.0 (Windows NT 10.0; Win64; x64) AppleWebKit/537.36 (KHTML, like Gecko) Chrome/121.0.0.0 Safari/537.36" etag="DN8fGamjEcLOOgPO2gAO" version="23.1.7" type="device">
  <diagram name="PÃ¡gina-1" id="PkSd60afNzl-SzR87JBx">
    <mxGraphModel dx="4327" dy="3052" grid="1" gridSize="10" guides="1" tooltips="1" connect="1" arrows="1" fold="1" page="1" pageScale="1" pageWidth="827" pageHeight="1169" math="0" shadow="0">
      <root>
        <mxCell id="0" />
        <mxCell id="1" parent="0" />
        <mxCell id="2Jqf5l2_oR7akQ4qAsPp-3" value="" style="image;points=[];aspect=fixed;html=1;align=center;shadow=0;dashed=0;image=img/lib/allied_telesis/computer_and_terminals/Personal_Computer_with_Server.svg;fillColor=#dae8fc;strokeColor=#6c8ebf;" parent="1" vertex="1">
          <mxGeometry x="-10.000000000000005" y="450" width="62.400000000000006" height="62.400000000000006" as="geometry" />
        </mxCell>
        <mxCell id="2Jqf5l2_oR7akQ4qAsPp-6" value="" style="image;points=[];aspect=fixed;html=1;align=center;shadow=0;dashed=0;image=img/lib/allied_telesis/computer_and_terminals/Personal_Computer_with_Server.svg;fillColor=#dae8fc;strokeColor=#6c8ebf;" parent="1" vertex="1">
          <mxGeometry x="60" y="450" width="62.4" height="62.4" as="geometry" />
        </mxCell>
        <mxCell id="2Jqf5l2_oR7akQ4qAsPp-11" value="" style="image;points=[];aspect=fixed;html=1;align=center;shadow=0;dashed=0;image=img/lib/allied_telesis/computer_and_terminals/Personal_Computer_with_Server.svg;fillColor=#dae8fc;strokeColor=#6c8ebf;" parent="1" vertex="1">
          <mxGeometry x="-90" y="442.4" width="70" height="70" as="geometry" />
        </mxCell>
        <mxCell id="2Jqf5l2_oR7akQ4qAsPp-12" value="" style="image;points=[];aspect=fixed;html=1;align=center;shadow=0;dashed=0;image=img/lib/allied_telesis/computer_and_terminals/Personal_Computer_with_Server.svg;fillColor=#dae8fc;strokeColor=#6c8ebf;" parent="1" vertex="1">
          <mxGeometry x="-170" y="442.4" width="62.400000000000006" height="62.400000000000006" as="geometry" />
        </mxCell>
        <mxCell id="2Jqf5l2_oR7akQ4qAsPp-15" style="edgeStyle=orthogonalEdgeStyle;rounded=0;orthogonalLoop=1;jettySize=auto;html=1;exitX=0;exitY=0.75;exitDx=0;exitDy=0;endArrow=none;endFill=0;fillColor=#dae8fc;strokeColor=#6c8ebf;" parent="1" source="2Jqf5l2_oR7akQ4qAsPp-13" target="2Jqf5l2_oR7akQ4qAsPp-3" edge="1">
          <mxGeometry relative="1" as="geometry" />
        </mxCell>
        <mxCell id="PgGez7W5HD5ZzP3xzYBS-1" style="edgeStyle=orthogonalEdgeStyle;rounded=0;orthogonalLoop=1;jettySize=auto;html=1;endFill=0;strokeColor=#6c8ebf;align=center;verticalAlign=middle;fontFamily=Helvetica;fontSize=11;fontColor=default;labelBackgroundColor=default;endArrow=none;exitX=0;exitY=1;exitDx=0;exitDy=0;fillColor=#dae8fc;" parent="1" source="2Jqf5l2_oR7akQ4qAsPp-13" edge="1">
          <mxGeometry relative="1" as="geometry">
            <mxPoint x="90" y="450" as="targetPoint" />
            <mxPoint x="510" y="340" as="sourcePoint" />
            <Array as="points">
              <mxPoint x="91" y="330" />
            </Array>
          </mxGeometry>
        </mxCell>
        <mxCell id="PgGez7W5HD5ZzP3xzYBS-55" style="edgeStyle=orthogonalEdgeStyle;rounded=0;orthogonalLoop=1;jettySize=auto;html=1;exitX=0;exitY=0.5;exitDx=0;exitDy=0;entryX=1;entryY=0.5;entryDx=0;entryDy=0;strokeColor=#6c8ebf;align=center;verticalAlign=middle;fontFamily=Helvetica;fontSize=11;fontColor=default;labelBackgroundColor=default;endArrow=none;endFill=0;fillColor=#dae8fc;" parent="1" source="D3vXgLS5FQcnrEwdbbq1-12" target="PgGez7W5HD5ZzP3xzYBS-20" edge="1">
          <mxGeometry relative="1" as="geometry">
            <Array as="points">
              <mxPoint x="-70" y="-40" />
            </Array>
          </mxGeometry>
        </mxCell>
        <mxCell id="D3vXgLS5FQcnrEwdbbq1-5" style="edgeStyle=orthogonalEdgeStyle;rounded=0;orthogonalLoop=1;jettySize=auto;html=1;exitX=1;exitY=0.5;exitDx=0;exitDy=0;entryX=0;entryY=0.5;entryDx=0;entryDy=0;strokeColor=#005700;align=center;verticalAlign=middle;fontFamily=Helvetica;fontSize=11;fontColor=default;labelBackgroundColor=default;endArrow=none;endFill=0;fillColor=#008a00;" edge="1" parent="1" source="2Jqf5l2_oR7akQ4qAsPp-13" target="D3vXgLS5FQcnrEwdbbq1-3">
          <mxGeometry relative="1" as="geometry" />
        </mxCell>
        <mxCell id="D3vXgLS5FQcnrEwdbbq1-8" style="edgeStyle=orthogonalEdgeStyle;rounded=0;orthogonalLoop=1;jettySize=auto;html=1;exitX=0.75;exitY=0;exitDx=0;exitDy=0;entryX=0.5;entryY=1;entryDx=0;entryDy=0;strokeColor=#A50040;align=center;verticalAlign=middle;fontFamily=Helvetica;fontSize=11;fontColor=default;labelBackgroundColor=default;endArrow=none;endFill=0;fillColor=#d80073;" edge="1" parent="1" source="2Jqf5l2_oR7akQ4qAsPp-13" target="D3vXgLS5FQcnrEwdbbq1-2">
          <mxGeometry relative="1" as="geometry">
            <Array as="points">
              <mxPoint x="610" y="230" />
            </Array>
          </mxGeometry>
        </mxCell>
        <mxCell id="2Jqf5l2_oR7akQ4qAsPp-13" value="" style="image;html=1;image=img/lib/clip_art/networking/Switch_128x128.png" parent="1" vertex="1">
          <mxGeometry x="510" y="230" width="120" height="100" as="geometry" />
        </mxCell>
        <mxCell id="2Jqf5l2_oR7akQ4qAsPp-17" style="edgeStyle=orthogonalEdgeStyle;rounded=0;orthogonalLoop=1;jettySize=auto;html=1;endArrow=none;endFill=0;fillColor=#dae8fc;strokeColor=#6c8ebf;" parent="1" target="2Jqf5l2_oR7akQ4qAsPp-11" edge="1">
          <mxGeometry relative="1" as="geometry">
            <mxPoint x="560" y="320" as="sourcePoint" />
            <mxPoint x="-10.000000000000046" y="535.1800000000001" as="targetPoint" />
            <Array as="points">
              <mxPoint x="560" y="330" />
              <mxPoint x="560" y="535" />
              <mxPoint x="-65" y="535" />
            </Array>
          </mxGeometry>
        </mxCell>
        <mxCell id="PgGez7W5HD5ZzP3xzYBS-10" style="edgeStyle=orthogonalEdgeStyle;rounded=0;orthogonalLoop=1;jettySize=auto;html=1;endArrow=none;endFill=0;exitX=0.75;exitY=1;exitDx=0;exitDy=0;fillColor=#dae8fc;strokeColor=#6c8ebf;" parent="1" source="2Jqf5l2_oR7akQ4qAsPp-13" target="2Jqf5l2_oR7akQ4qAsPp-12" edge="1">
          <mxGeometry relative="1" as="geometry">
            <mxPoint x="600" y="330" as="sourcePoint" />
            <mxPoint x="-50" y="558.1" as="targetPoint" />
            <Array as="points">
              <mxPoint x="600" y="560" />
              <mxPoint x="-139" y="560" />
            </Array>
          </mxGeometry>
        </mxCell>
        <mxCell id="PgGez7W5HD5ZzP3xzYBS-19" style="edgeStyle=orthogonalEdgeStyle;rounded=0;orthogonalLoop=1;jettySize=auto;html=1;exitX=1;exitY=0.5;exitDx=0;exitDy=0;entryX=0;entryY=0;entryDx=0;entryDy=0;strokeColor=#6c8ebf;align=center;verticalAlign=middle;fontFamily=Helvetica;fontSize=11;fontColor=default;labelBackgroundColor=default;endArrow=none;endFill=0;fillColor=#dae8fc;" parent="1" source="PgGez7W5HD5ZzP3xzYBS-11" target="2Jqf5l2_oR7akQ4qAsPp-13" edge="1">
          <mxGeometry relative="1" as="geometry" />
        </mxCell>
        <mxCell id="PgGez7W5HD5ZzP3xzYBS-11" value="" style="image;html=1;image=img/lib/clip_art/computers/Printer_128x128.png;fillColor=#dae8fc;strokeColor=#6c8ebf;" parent="1" vertex="1">
          <mxGeometry x="-18.8" y="100" width="80" height="80" as="geometry" />
        </mxCell>
        <mxCell id="PgGez7W5HD5ZzP3xzYBS-15" style="edgeStyle=orthogonalEdgeStyle;rounded=0;orthogonalLoop=1;jettySize=auto;html=1;exitX=0.5;exitY=1;exitDx=0;exitDy=0;entryX=0;entryY=0.5;entryDx=0;entryDy=0;strokeColor=#6c8ebf;align=center;verticalAlign=middle;fontFamily=Helvetica;fontSize=11;fontColor=default;labelBackgroundColor=default;endArrow=none;endFill=0;fillColor=#dae8fc;" parent="1" source="PgGez7W5HD5ZzP3xzYBS-12" target="2Jqf5l2_oR7akQ4qAsPp-13" edge="1">
          <mxGeometry relative="1" as="geometry" />
        </mxCell>
        <mxCell id="PgGez7W5HD5ZzP3xzYBS-12" value="" style="image;html=1;image=img/lib/clip_art/computers/Printer_128x128.png;fillColor=#dae8fc;strokeColor=#6c8ebf;" parent="1" vertex="1">
          <mxGeometry x="-200" y="100" width="80" height="80" as="geometry" />
        </mxCell>
        <mxCell id="PgGez7W5HD5ZzP3xzYBS-18" style="edgeStyle=orthogonalEdgeStyle;rounded=0;orthogonalLoop=1;jettySize=auto;html=1;exitX=0.5;exitY=1;exitDx=0;exitDy=0;entryX=0;entryY=0.25;entryDx=0;entryDy=0;strokeColor=#6c8ebf;align=center;verticalAlign=middle;fontFamily=Helvetica;fontSize=11;fontColor=default;labelBackgroundColor=default;endArrow=none;endFill=0;fillColor=#dae8fc;" parent="1" source="PgGez7W5HD5ZzP3xzYBS-14" target="2Jqf5l2_oR7akQ4qAsPp-13" edge="1">
          <mxGeometry relative="1" as="geometry" />
        </mxCell>
        <mxCell id="PgGez7W5HD5ZzP3xzYBS-14" value="" style="image;html=1;image=img/lib/clip_art/computers/Printer_128x128.png;fillColor=#dae8fc;strokeColor=#6c8ebf;" parent="1" vertex="1">
          <mxGeometry x="-107.6" y="100" width="80" height="80" as="geometry" />
        </mxCell>
        <mxCell id="PgGez7W5HD5ZzP3xzYBS-26" style="edgeStyle=orthogonalEdgeStyle;rounded=0;orthogonalLoop=1;jettySize=auto;html=1;exitX=0.5;exitY=0;exitDx=0;exitDy=0;strokeColor=#6c8ebf;align=center;verticalAlign=middle;fontFamily=Helvetica;fontSize=11;fontColor=default;labelBackgroundColor=default;endArrow=none;endFill=0;fillColor=#dae8fc;" parent="1" source="PgGez7W5HD5ZzP3xzYBS-20" target="PgGez7W5HD5ZzP3xzYBS-23" edge="1">
          <mxGeometry relative="1" as="geometry">
            <Array as="points">
              <mxPoint x="-130" y="-390" />
            </Array>
          </mxGeometry>
        </mxCell>
        <mxCell id="PgGez7W5HD5ZzP3xzYBS-20" value="" style="image;html=1;image=img/lib/clip_art/computers/Server_Tower_128x128.png;fillColor=#dae8fc;strokeColor=#6c8ebf;" parent="1" vertex="1">
          <mxGeometry x="-190" y="-210" width="120" height="110" as="geometry" />
        </mxCell>
        <mxCell id="PgGez7W5HD5ZzP3xzYBS-23" value="" style="sketch=0;pointerEvents=1;shadow=0;dashed=0;html=1;strokeColor=#6c8ebf;fillColor=#dae8fc;labelPosition=center;verticalLabelPosition=bottom;verticalAlign=top;outlineConnect=0;align=center;shape=mxgraph.office.devices.modem;" parent="1" vertex="1">
          <mxGeometry x="100" y="-440" width="110" height="94" as="geometry" />
        </mxCell>
        <mxCell id="PgGez7W5HD5ZzP3xzYBS-28" style="edgeStyle=orthogonalEdgeStyle;rounded=0;orthogonalLoop=1;jettySize=auto;html=1;exitX=1;exitY=0.5;exitDx=0;exitDy=0;strokeColor=#6c8ebf;align=center;verticalAlign=middle;fontFamily=Helvetica;fontSize=11;fontColor=default;labelBackgroundColor=default;endArrow=none;endFill=0;fillColor=#dae8fc;" parent="1" source="PgGez7W5HD5ZzP3xzYBS-27" target="PgGez7W5HD5ZzP3xzYBS-23" edge="1">
          <mxGeometry relative="1" as="geometry" />
        </mxCell>
        <mxCell id="PgGez7W5HD5ZzP3xzYBS-27" value="" style="image;aspect=fixed;perimeter=ellipsePerimeter;html=1;align=center;shadow=0;dashed=0;spacingTop=3;image=img/lib/active_directory/internet_globe.svg;" parent="1" vertex="1">
          <mxGeometry x="-240" y="-700" width="80" height="80" as="geometry" />
        </mxCell>
        <mxCell id="PgGez7W5HD5ZzP3xzYBS-51" style="edgeStyle=orthogonalEdgeStyle;rounded=0;orthogonalLoop=1;jettySize=auto;html=1;exitX=1;exitY=0.25;exitDx=0;exitDy=0;strokeColor=#005700;align=center;verticalAlign=middle;fontFamily=Helvetica;fontSize=11;fontColor=default;labelBackgroundColor=default;endArrow=none;endFill=0;fillColor=#008a00;" parent="1" source="PgGez7W5HD5ZzP3xzYBS-29" target="PgGez7W5HD5ZzP3xzYBS-38" edge="1">
          <mxGeometry relative="1" as="geometry" />
        </mxCell>
        <mxCell id="D3vXgLS5FQcnrEwdbbq1-7" style="edgeStyle=orthogonalEdgeStyle;rounded=0;orthogonalLoop=1;jettySize=auto;html=1;exitX=0.25;exitY=0;exitDx=0;exitDy=0;entryX=0.25;entryY=1;entryDx=0;entryDy=0;strokeColor=#005700;align=center;verticalAlign=middle;fontFamily=Helvetica;fontSize=11;fontColor=default;labelBackgroundColor=default;endArrow=none;endFill=0;fillColor=#008a00;" edge="1" parent="1" source="PgGez7W5HD5ZzP3xzYBS-29" target="D3vXgLS5FQcnrEwdbbq1-3">
          <mxGeometry relative="1" as="geometry" />
        </mxCell>
        <mxCell id="PgGez7W5HD5ZzP3xzYBS-29" value="" style="image;html=1;image=img/lib/clip_art/networking/Print_Server_128x128.png;fillColor=#e1d5e7;strokeColor=#9673a6;" parent="1" vertex="1">
          <mxGeometry x="880" y="220" width="170" height="135" as="geometry" />
        </mxCell>
        <mxCell id="PgGez7W5HD5ZzP3xzYBS-34" style="edgeStyle=orthogonalEdgeStyle;rounded=0;orthogonalLoop=1;jettySize=auto;html=1;exitX=0.25;exitY=0;exitDx=0;exitDy=0;entryX=1;entryY=0.75;entryDx=0;entryDy=0;strokeColor=#005700;align=center;verticalAlign=middle;fontFamily=Helvetica;fontSize=11;fontColor=default;labelBackgroundColor=default;endArrow=none;endFill=0;fillColor=#008a00;" parent="1" source="PgGez7W5HD5ZzP3xzYBS-31" target="PgGez7W5HD5ZzP3xzYBS-29" edge="1">
          <mxGeometry relative="1" as="geometry" />
        </mxCell>
        <mxCell id="PgGez7W5HD5ZzP3xzYBS-31" value="" style="image;html=1;image=img/lib/clip_art/computers/Printer_128x128.png;fillColor=#008a00;strokeColor=#005700;fontColor=#ffffff;" parent="1" vertex="1">
          <mxGeometry x="1130" y="400" width="90" height="80" as="geometry" />
        </mxCell>
        <mxCell id="PgGez7W5HD5ZzP3xzYBS-33" style="edgeStyle=orthogonalEdgeStyle;rounded=0;orthogonalLoop=1;jettySize=auto;html=1;exitX=0.25;exitY=0;exitDx=0;exitDy=0;entryX=0.75;entryY=1;entryDx=0;entryDy=0;strokeColor=#005700;align=center;verticalAlign=middle;fontFamily=Helvetica;fontSize=11;fontColor=default;labelBackgroundColor=default;endArrow=none;endFill=0;fillColor=#008a00;" parent="1" source="PgGez7W5HD5ZzP3xzYBS-32" target="PgGez7W5HD5ZzP3xzYBS-29" edge="1">
          <mxGeometry relative="1" as="geometry">
            <Array as="points">
              <mxPoint x="1000" y="355" />
            </Array>
          </mxGeometry>
        </mxCell>
        <mxCell id="PgGez7W5HD5ZzP3xzYBS-32" value="" style="image;html=1;image=img/lib/clip_art/computers/Printer_128x128.png;direction=east;fillColor=#008a00;strokeColor=#005700;fontColor=#ffffff;" parent="1" vertex="1">
          <mxGeometry x="980" y="400" width="90" height="100" as="geometry" />
        </mxCell>
        <mxCell id="PgGez7W5HD5ZzP3xzYBS-35" value="" style="image;points=[];aspect=fixed;html=1;align=center;shadow=0;dashed=0;image=img/lib/allied_telesis/computer_and_terminals/Personal_Computer_with_Server.svg;fillColor=#008a00;strokeColor=#005700;fontColor=#ffffff;" parent="1" vertex="1">
          <mxGeometry x="860" y="560" width="62.400000000000006" height="62.400000000000006" as="geometry" />
        </mxCell>
        <mxCell id="PgGez7W5HD5ZzP3xzYBS-36" value="" style="image;points=[];aspect=fixed;html=1;align=center;shadow=0;dashed=0;image=img/lib/allied_telesis/computer_and_terminals/Personal_Computer_with_Server.svg;fillColor=#008a00;strokeColor=#005700;fontColor=#ffffff;" parent="1" vertex="1">
          <mxGeometry x="980" y="570" width="62.400000000000006" height="62.400000000000006" as="geometry" />
        </mxCell>
        <mxCell id="PgGez7W5HD5ZzP3xzYBS-37" value="" style="image;points=[];aspect=fixed;html=1;align=center;shadow=0;dashed=0;image=img/lib/allied_telesis/computer_and_terminals/Personal_Computer_with_Server.svg;fillColor=#008a00;strokeColor=#005700;fontColor=#ffffff;" parent="1" vertex="1">
          <mxGeometry x="1100" y="570" width="62.400000000000006" height="62.400000000000006" as="geometry" />
        </mxCell>
        <mxCell id="PgGez7W5HD5ZzP3xzYBS-38" value="" style="image;points=[];aspect=fixed;html=1;align=center;shadow=0;dashed=0;image=img/lib/allied_telesis/computer_and_terminals/Personal_Computer_with_Server.svg;fillColor=#008a00;strokeColor=#005700;fontColor=#ffffff;" parent="1" vertex="1">
          <mxGeometry x="1220" y="570" width="62.400000000000006" height="62.400000000000006" as="geometry" />
        </mxCell>
        <mxCell id="PgGez7W5HD5ZzP3xzYBS-39" value="" style="image;points=[];aspect=fixed;html=1;align=center;shadow=0;dashed=0;image=img/lib/allied_telesis/computer_and_terminals/Personal_Computer_with_Server.svg;fillColor=#008a00;strokeColor=#005700;fontColor=#ffffff;" parent="1" vertex="1">
          <mxGeometry x="1340" y="580" width="62.400000000000006" height="62.400000000000006" as="geometry" />
        </mxCell>
        <mxCell id="PgGez7W5HD5ZzP3xzYBS-48" style="edgeStyle=orthogonalEdgeStyle;rounded=0;orthogonalLoop=1;jettySize=auto;html=1;exitX=0;exitY=1;exitDx=0;exitDy=0;entryX=0.353;entryY=-0.016;entryDx=0;entryDy=0;entryPerimeter=0;strokeColor=#005700;align=center;verticalAlign=middle;fontFamily=Helvetica;fontSize=11;fontColor=default;labelBackgroundColor=default;endArrow=none;endFill=0;fillColor=#008a00;" parent="1" source="PgGez7W5HD5ZzP3xzYBS-29" target="PgGez7W5HD5ZzP3xzYBS-35" edge="1">
          <mxGeometry relative="1" as="geometry" />
        </mxCell>
        <mxCell id="PgGez7W5HD5ZzP3xzYBS-50" style="edgeStyle=orthogonalEdgeStyle;rounded=0;orthogonalLoop=1;jettySize=auto;html=1;exitX=1;exitY=0;exitDx=0;exitDy=0;entryX=0.545;entryY=-0.016;entryDx=0;entryDy=0;entryPerimeter=0;strokeColor=#005700;align=center;verticalAlign=middle;fontFamily=Helvetica;fontSize=11;fontColor=default;labelBackgroundColor=default;endArrow=none;endFill=0;fillColor=#008a00;" parent="1" source="PgGez7W5HD5ZzP3xzYBS-29" target="PgGez7W5HD5ZzP3xzYBS-39" edge="1">
          <mxGeometry relative="1" as="geometry" />
        </mxCell>
        <mxCell id="PgGez7W5HD5ZzP3xzYBS-52" style="edgeStyle=orthogonalEdgeStyle;rounded=0;orthogonalLoop=1;jettySize=auto;html=1;exitX=0.5;exitY=1;exitDx=0;exitDy=0;entryX=0;entryY=1.106;entryDx=0;entryDy=0;entryPerimeter=0;strokeColor=#005700;align=center;verticalAlign=middle;fontFamily=Helvetica;fontSize=11;fontColor=default;labelBackgroundColor=default;endArrow=none;endFill=0;fillColor=#008a00;" parent="1" source="PgGez7W5HD5ZzP3xzYBS-29" target="PgGez7W5HD5ZzP3xzYBS-36" edge="1">
          <mxGeometry relative="1" as="geometry">
            <Array as="points">
              <mxPoint x="960" y="355" />
              <mxPoint x="960" y="639" />
            </Array>
          </mxGeometry>
        </mxCell>
        <mxCell id="PgGez7W5HD5ZzP3xzYBS-54" style="edgeStyle=orthogonalEdgeStyle;rounded=0;orthogonalLoop=1;jettySize=auto;html=1;exitX=0.25;exitY=1;exitDx=0;exitDy=0;entryX=0.064;entryY=1.01;entryDx=0;entryDy=0;entryPerimeter=0;strokeColor=#005700;align=center;verticalAlign=middle;fontFamily=Helvetica;fontSize=11;fontColor=default;labelBackgroundColor=default;endArrow=none;endFill=0;fillColor=#008a00;" parent="1" source="PgGez7W5HD5ZzP3xzYBS-29" target="PgGez7W5HD5ZzP3xzYBS-37" edge="1">
          <mxGeometry relative="1" as="geometry" />
        </mxCell>
        <mxCell id="PgGez7W5HD5ZzP3xzYBS-62" style="edgeStyle=orthogonalEdgeStyle;rounded=0;orthogonalLoop=1;jettySize=auto;html=1;exitX=0.75;exitY=0;exitDx=0;exitDy=0;strokeColor=#A50040;align=center;verticalAlign=middle;fontFamily=Helvetica;fontSize=11;fontColor=default;labelBackgroundColor=default;endArrow=none;endFill=0;fillColor=#d80073;" parent="1" source="PgGez7W5HD5ZzP3xzYBS-56" target="PgGez7W5HD5ZzP3xzYBS-58" edge="1">
          <mxGeometry relative="1" as="geometry">
            <Array as="points">
              <mxPoint x="890" y="-160" />
              <mxPoint x="890" y="-220" />
              <mxPoint x="1251" y="-220" />
            </Array>
          </mxGeometry>
        </mxCell>
        <mxCell id="PgGez7W5HD5ZzP3xzYBS-64" style="edgeStyle=orthogonalEdgeStyle;rounded=0;orthogonalLoop=1;jettySize=auto;html=1;exitX=1;exitY=0;exitDx=0;exitDy=0;strokeColor=#A50040;align=center;verticalAlign=middle;fontFamily=Helvetica;fontSize=11;fontColor=default;labelBackgroundColor=default;endArrow=none;endFill=0;fillColor=#d80073;" parent="1" source="PgGez7W5HD5ZzP3xzYBS-56" target="PgGez7W5HD5ZzP3xzYBS-59" edge="1">
          <mxGeometry relative="1" as="geometry" />
        </mxCell>
        <mxCell id="PgGez7W5HD5ZzP3xzYBS-65" style="edgeStyle=orthogonalEdgeStyle;rounded=0;orthogonalLoop=1;jettySize=auto;html=1;exitX=1;exitY=0.25;exitDx=0;exitDy=0;strokeColor=#A50040;align=center;verticalAlign=middle;fontFamily=Helvetica;fontSize=11;fontColor=default;labelBackgroundColor=default;endArrow=none;endFill=0;fillColor=#d80073;" parent="1" source="PgGez7W5HD5ZzP3xzYBS-56" target="PgGez7W5HD5ZzP3xzYBS-60" edge="1">
          <mxGeometry relative="1" as="geometry" />
        </mxCell>
        <mxCell id="PgGez7W5HD5ZzP3xzYBS-66" style="edgeStyle=orthogonalEdgeStyle;rounded=0;orthogonalLoop=1;jettySize=auto;html=1;exitX=1;exitY=0.75;exitDx=0;exitDy=0;strokeColor=#A50040;align=center;verticalAlign=middle;fontFamily=Helvetica;fontSize=11;fontColor=default;labelBackgroundColor=default;endArrow=none;endFill=0;fillColor=#d80073;" parent="1" source="PgGez7W5HD5ZzP3xzYBS-56" target="PgGez7W5HD5ZzP3xzYBS-61" edge="1">
          <mxGeometry relative="1" as="geometry" />
        </mxCell>
        <mxCell id="PgGez7W5HD5ZzP3xzYBS-74" style="edgeStyle=orthogonalEdgeStyle;rounded=0;orthogonalLoop=1;jettySize=auto;html=1;exitX=0;exitY=0;exitDx=0;exitDy=0;strokeColor=#A50040;align=center;verticalAlign=middle;fontFamily=Helvetica;fontSize=11;fontColor=default;labelBackgroundColor=default;endArrow=none;endFill=0;fillColor=#d80073;" parent="1" source="PgGez7W5HD5ZzP3xzYBS-56" edge="1">
          <mxGeometry relative="1" as="geometry">
            <mxPoint x="660" y="-550" as="targetPoint" />
          </mxGeometry>
        </mxCell>
        <mxCell id="PgGez7W5HD5ZzP3xzYBS-56" value="" style="shape=image;html=1;verticalAlign=top;verticalLabelPosition=bottom;labelBackgroundColor=#ffffff;imageAspect=0;aspect=fixed;image=https://cdn4.iconfinder.com/data/icons/ios-web-user-interface-multi-circle-flat-vol-2/512/Archive_archives_files_hosting_database_server_storage-128.png;fillColor=#d80073;fontColor=#ffffff;strokeColor=#A50040;" parent="1" vertex="1">
          <mxGeometry x="790" y="-160" width="128" height="128" as="geometry" />
        </mxCell>
        <mxCell id="PgGez7W5HD5ZzP3xzYBS-58" value="" style="image;points=[];aspect=fixed;html=1;align=center;shadow=0;dashed=0;image=img/lib/allied_telesis/computer_and_terminals/Personal_Computer_with_Server.svg;fillColor=#d80073;fontColor=#ffffff;strokeColor=#A50040;" parent="1" vertex="1">
          <mxGeometry x="1220" y="-342.4" width="62.400000000000006" height="62.400000000000006" as="geometry" />
        </mxCell>
        <mxCell id="PgGez7W5HD5ZzP3xzYBS-59" value="" style="image;points=[];aspect=fixed;html=1;align=center;shadow=0;dashed=0;image=img/lib/allied_telesis/computer_and_terminals/Personal_Computer_with_Server.svg;fillColor=#d80073;fontColor=#ffffff;strokeColor=#A50040;" parent="1" vertex="1">
          <mxGeometry x="1290" y="-280" width="62.400000000000006" height="62.400000000000006" as="geometry" />
        </mxCell>
        <mxCell id="PgGez7W5HD5ZzP3xzYBS-60" value="" style="image;points=[];aspect=fixed;html=1;align=center;shadow=0;dashed=0;image=img/lib/allied_telesis/computer_and_terminals/Personal_Computer_with_Server.svg;fillColor=#d80073;fontColor=#ffffff;strokeColor=#A50040;" parent="1" vertex="1">
          <mxGeometry x="1352.4" y="-160" width="62.400000000000006" height="62.400000000000006" as="geometry" />
        </mxCell>
        <mxCell id="PgGez7W5HD5ZzP3xzYBS-61" value="" style="image;points=[];aspect=fixed;html=1;align=center;shadow=0;dashed=0;image=img/lib/allied_telesis/computer_and_terminals/Personal_Computer_with_Server.svg;fillColor=#d80073;fontColor=#ffffff;strokeColor=#A50040;" parent="1" vertex="1">
          <mxGeometry x="1290" y="-94.39999999999998" width="62.400000000000006" height="62.400000000000006" as="geometry" />
        </mxCell>
        <mxCell id="PgGez7W5HD5ZzP3xzYBS-67" value="" style="fontColor=#ffffff;verticalAlign=top;verticalLabelPosition=bottom;labelPosition=center;align=center;html=1;outlineConnect=0;fillColor=#d80073;strokeColor=#A50040;gradientDirection=north;strokeWidth=2;shape=mxgraph.networks.laptop;" parent="1" vertex="1">
          <mxGeometry x="620" y="-612" width="100" height="55" as="geometry" />
        </mxCell>
        <mxCell id="PgGez7W5HD5ZzP3xzYBS-68" value="" style="fontColor=#ffffff;verticalAlign=top;verticalLabelPosition=bottom;labelPosition=center;align=center;html=1;outlineConnect=0;fillColor=#d80073;strokeColor=#A50040;gradientDirection=north;strokeWidth=2;shape=mxgraph.networks.laptop;" parent="1" vertex="1">
          <mxGeometry x="932.4" y="-612" width="100" height="55" as="geometry" />
        </mxCell>
        <mxCell id="PgGez7W5HD5ZzP3xzYBS-75" style="edgeStyle=orthogonalEdgeStyle;rounded=0;orthogonalLoop=1;jettySize=auto;html=1;exitX=0.5;exitY=1;exitDx=0;exitDy=0;exitPerimeter=0;entryX=0.25;entryY=0;entryDx=0;entryDy=0;strokeColor=#A50040;align=center;verticalAlign=middle;fontFamily=Helvetica;fontSize=11;fontColor=default;labelBackgroundColor=default;endArrow=none;endFill=0;fillColor=#d80073;" parent="1" source="PgGez7W5HD5ZzP3xzYBS-71" target="PgGez7W5HD5ZzP3xzYBS-56" edge="1">
          <mxGeometry relative="1" as="geometry">
            <Array as="points">
              <mxPoint x="822" y="-557" />
            </Array>
          </mxGeometry>
        </mxCell>
        <mxCell id="PgGez7W5HD5ZzP3xzYBS-71" value="" style="fontColor=#ffffff;verticalAlign=top;verticalLabelPosition=bottom;labelPosition=center;align=center;html=1;outlineConnect=0;fillColor=#d80073;strokeColor=#A50040;gradientDirection=north;strokeWidth=2;shape=mxgraph.networks.laptop;" parent="1" vertex="1">
          <mxGeometry x="780" y="-612" width="100" height="55" as="geometry" />
        </mxCell>
        <mxCell id="PgGez7W5HD5ZzP3xzYBS-76" style="edgeStyle=orthogonalEdgeStyle;rounded=0;orthogonalLoop=1;jettySize=auto;html=1;exitX=0.5;exitY=0;exitDx=0;exitDy=0;entryX=0.5;entryY=1;entryDx=0;entryDy=0;entryPerimeter=0;strokeColor=#A50040;align=center;verticalAlign=middle;fontFamily=Helvetica;fontSize=11;fontColor=default;labelBackgroundColor=default;endArrow=none;endFill=0;fillColor=#d80073;" parent="1" source="PgGez7W5HD5ZzP3xzYBS-56" target="PgGez7W5HD5ZzP3xzYBS-68" edge="1">
          <mxGeometry relative="1" as="geometry" />
        </mxCell>
        <mxCell id="PgGez7W5HD5ZzP3xzYBS-77" value="" style="image;html=1;image=img/lib/clip_art/computers/Printer_Commercial_128x128.png;fillColor=#d80073;fontColor=#ffffff;strokeColor=#A50040;" parent="1" vertex="1">
          <mxGeometry x="1220" y="10" width="80" height="80" as="geometry" />
        </mxCell>
        <mxCell id="D3vXgLS5FQcnrEwdbbq1-1" style="edgeStyle=orthogonalEdgeStyle;rounded=0;orthogonalLoop=1;jettySize=auto;html=1;exitX=1;exitY=0.25;exitDx=0;exitDy=0;entryX=0.801;entryY=1.088;entryDx=0;entryDy=0;entryPerimeter=0;strokeColor=#A50040;align=center;verticalAlign=middle;fontFamily=Helvetica;fontSize=11;fontColor=default;labelBackgroundColor=default;endArrow=none;endFill=0;fillColor=#d80073;" edge="1" parent="1" source="PgGez7W5HD5ZzP3xzYBS-77" target="PgGez7W5HD5ZzP3xzYBS-61">
          <mxGeometry relative="1" as="geometry" />
        </mxCell>
        <mxCell id="D3vXgLS5FQcnrEwdbbq1-9" style="edgeStyle=orthogonalEdgeStyle;rounded=0;orthogonalLoop=1;jettySize=auto;html=1;exitX=1;exitY=0.5;exitDx=0;exitDy=0;entryX=0;entryY=0.75;entryDx=0;entryDy=0;strokeColor=#A50040;align=center;verticalAlign=middle;fontFamily=Helvetica;fontSize=11;fontColor=default;labelBackgroundColor=default;endArrow=none;endFill=0;fillColor=#d80073;" edge="1" parent="1" source="D3vXgLS5FQcnrEwdbbq1-2" target="PgGez7W5HD5ZzP3xzYBS-56">
          <mxGeometry relative="1" as="geometry" />
        </mxCell>
        <mxCell id="D3vXgLS5FQcnrEwdbbq1-2" value="" style="image;html=1;image=img/lib/clip_art/networking/Switch_128x128.png" vertex="1" parent="1">
          <mxGeometry x="550" y="-290" width="120" height="100" as="geometry" />
        </mxCell>
        <mxCell id="D3vXgLS5FQcnrEwdbbq1-3" value="" style="image;html=1;image=img/lib/clip_art/networking/Switch_128x128.png;fillColor=#008a00;strokeColor=#005700;fontColor=#ffffff;" vertex="1" parent="1">
          <mxGeometry x="670" y="790" width="120" height="100" as="geometry" />
        </mxCell>
        <mxCell id="D3vXgLS5FQcnrEwdbbq1-13" style="edgeStyle=orthogonalEdgeStyle;rounded=0;orthogonalLoop=1;jettySize=auto;html=1;exitX=1;exitY=0.5;exitDx=0;exitDy=0;entryX=0.25;entryY=0;entryDx=0;entryDy=0;strokeColor=#006EAF;align=center;verticalAlign=middle;fontFamily=Helvetica;fontSize=11;fontColor=default;labelBackgroundColor=default;endArrow=none;endFill=0;fillColor=#1ba1e2;" edge="1" parent="1" source="D3vXgLS5FQcnrEwdbbq1-12" target="2Jqf5l2_oR7akQ4qAsPp-13">
          <mxGeometry relative="1" as="geometry" />
        </mxCell>
        <mxCell id="D3vXgLS5FQcnrEwdbbq1-12" value="" style="image;html=1;image=img/lib/clip_art/networking/Switch_128x128.png;fillColor=#008a00;strokeColor=#005700;fontColor=#ffffff;" vertex="1" parent="1">
          <mxGeometry x="260" y="-90" width="120" height="100" as="geometry" />
        </mxCell>
      </root>
    </mxGraphModel>
  </diagram>
</mxfile>
